<svg width="20" height="20" viewBox="0 0 20 20" fill="none" xmlns="http://www.w3.org/2000/svg">
<path d="M17.7327 3.9609C17.5131 3.7033 17.2381 3.49612 16.9274 3.35407C16.6166 3.21203 16.2777 3.1386 15.9347 3.13901H3.31185L3.27906 2.87115C3.21195 2.31438 2.93818 1.80103 2.50964 1.42843C2.08111 1.05583 1.52759 0.84987 0.95405 0.849609L0.780728 0.849609C0.573666 0.849609 0.375085 0.930011 0.22867 1.07313C0.0822551 1.21624 0 1.41035 0 1.61274C0 1.81514 0.0822551 2.00924 0.22867 2.15236C0.375085 2.29547 0.573666 2.37588 0.780728 2.37588H0.95405C1.14528 2.3759 1.32984 2.44452 1.47274 2.56873C1.61564 2.69294 1.70694 2.86409 1.72931 3.04972L2.8036 11.9784C2.91512 12.907 3.37156 13.7632 4.08626 14.3845C4.80096 15.0059 5.72419 15.3492 6.68069 15.3491H14.8338C15.0409 15.3491 15.2395 15.2687 15.3859 15.1256C15.5323 14.9825 15.6146 14.7884 15.6146 14.586C15.6146 14.3836 15.5323 14.1895 15.3859 14.0464C15.2395 13.9033 15.0409 13.8229 14.8338 13.8229H6.68069C6.19747 13.8215 5.72649 13.6742 5.33232 13.4009C4.93816 13.1277 4.64011 12.7419 4.47904 12.2966H13.7853C14.7006 12.2967 15.5867 11.9824 16.289 11.4087C16.9912 10.8349 17.4649 10.0383 17.6273 9.15784L18.2402 5.83516C18.3013 5.50549 18.2876 5.16671 18.1999 4.84281C18.1122 4.51891 17.9527 4.21783 17.7327 3.9609ZM16.7076 5.56425L16.0939 8.88693C15.9964 9.41578 15.7117 9.89426 15.2897 10.2386C14.8676 10.5829 14.3351 10.7712 13.7853 10.7703H4.23077L3.4961 4.66528H15.9347C16.0494 4.66461 16.1628 4.68864 16.2669 4.73568C16.371 4.78271 16.4632 4.85159 16.537 4.93741C16.6108 5.02324 16.6643 5.1239 16.6938 5.23224C16.7233 5.34057 16.728 5.45393 16.7076 5.56425Z" fill="black" fill-opacity="0.8"/>
<path d="M5.46476 19.1648C6.32712 19.1648 7.02621 18.4815 7.02621 17.6386C7.02621 16.7956 6.32712 16.1123 5.46476 16.1123C4.6024 16.1123 3.90332 16.7956 3.90332 17.6386C3.90332 18.4815 4.6024 19.1648 5.46476 19.1648Z" fill="black" fill-opacity="0.8"/>
<path d="M13.2724 19.1648C14.1347 19.1648 14.8338 18.4815 14.8338 17.6386C14.8338 16.7956 14.1347 16.1123 13.2724 16.1123C12.41 16.1123 11.7109 16.7956 11.7109 17.6386C11.7109 18.4815 12.41 19.1648 13.2724 19.1648Z" fill="black" fill-opacity="0.8"/>
<circle cx="15.9926" cy="3.04628" r="3.04628" fill="#FF6A28"/>
</svg>
