<svg width="90" height="42" viewBox="0 0 90 42" fill="none" xmlns="http://www.w3.org/2000/svg">
<path fill-rule="evenodd" clip-rule="evenodd" d="M37.4544 0.256491C36.5796 1.03918 36.3785 2.72946 37.0042 4.04046C37.4149 4.90103 38.465 5.9416 39.5885 6.60141L40.4799 7.12494L38.9175 7.95157C35.6399 9.68568 34.0656 11.1561 32.7882 13.6763C31.8413 15.5444 31.4615 17.4558 31.5584 19.8654C31.7118 23.6835 33.0127 26.6105 35.984 29.8241C37.0295 30.9548 37.0921 31.047 36.9598 31.2603C36.882 31.3858 36.6864 31.7037 36.5251 31.9671C34.6916 34.959 36.1432 38.9422 39.7274 40.7532C42.5394 42.1743 46.6484 42.4032 49.9594 41.3234C51.8575 40.7043 53.5216 39.6693 54.7676 38.3327C55.3843 37.6711 56.5682 35.9399 56.464 35.8521C56.4468 35.8376 56.3297 35.7712 56.2037 35.7045C55.9943 35.5936 55.9419 35.6335 55.5925 36.1699C54.7393 37.4797 53.2796 38.5059 51.3654 39.1417C47.6702 40.3689 43.0643 40.5156 40.4024 39.4907C39.2556 39.0493 38.6684 38.6977 37.9828 38.0422C37.1125 37.21 36.6817 36.4614 36.4729 35.4183C36.3329 34.7183 36.3262 34.4712 36.4316 33.8881C36.5583 33.1874 36.973 32.2677 37.4052 31.7284L37.6392 31.4365L38.4223 31.9223C41.9272 34.0965 45.8947 35.0303 49.1831 34.4546C50.9654 34.1427 52.7134 33.4244 54.3968 32.3124C59.2958 29.0761 62.123 23.4871 62.123 17.0381C62.123 12.2263 60.6064 8.17956 57.6893 5.20689C55.0028 2.46934 51.608 1.07961 47.6102 1.08088C45.6908 1.08152 44.2072 1.31174 41.4531 2.03613C38.7204 2.75488 38.0415 2.69403 37.7152 1.70101C37.5616 1.23344 37.6088 1.01843 37.9572 0.596504C38.202 0.300216 38.2034 0.28745 38.013 0.111911C37.8277 -0.0590527 37.7987 -0.0514995 37.4544 0.256491ZM0 2.3188C0 2.5652 0.0419722 2.57988 1.08898 2.69988C3.09247 2.92968 3.97201 3.29671 4.43234 4.09515C4.64429 4.46271 4.64649 4.58463 4.67854 17.658C4.70213 27.2646 4.67854 31.0032 4.59157 31.4137C4.35237 32.5442 3.44558 33.0372 1.17459 33.2717L0 33.393V33.6907V33.9884H8.22738C13.0264 33.9884 17.04 33.9417 17.859 33.8765C21.9458 33.5506 24.8879 32.3615 26.7171 30.2965C27.4169 29.5063 28.0959 28.236 28.3543 27.2328C28.608 26.248 28.6597 24.5119 28.4635 23.5625C28.2552 22.5544 27.6139 21.2289 26.9801 20.4961C25.4112 18.6824 22.4963 17.5052 18.8718 17.2215C18.3693 17.1821 17.9582 17.1149 17.9582 17.072C17.9582 17.029 18.2518 16.9602 18.6108 16.9189C20.2872 16.7262 22.3013 16.1444 23.5907 15.4804C26.167 14.1536 27.6059 11.8118 27.4168 9.25343C27.139 5.49403 24.7207 3.35544 19.6288 2.36604C18.4593 2.1388 18.1884 2.13177 9.21404 2.09773L0 2.06262V2.3188ZM62.9582 2.32593C62.9582 2.56094 63.0096 2.58466 63.663 2.65084C66.0004 2.88755 66.9107 3.25043 67.3719 4.12919L67.6044 4.5724V18.0304C67.6044 30.6734 67.5932 31.5091 67.4208 31.8307C66.9666 32.6773 66.0547 33.0774 64.1328 33.2733L62.9582 33.393V33.6907V33.9884H70.9455H78.9327V33.7224C78.9327 33.5323 78.8763 33.4565 78.735 33.4565C78.0748 33.4565 76.324 33.2042 75.7721 33.0295C75.0763 32.8094 74.6605 32.4864 74.3658 31.9371C74.196 31.6207 74.1821 31.0905 74.1821 24.9455V18.2963L75.7802 18.322C78.3263 18.3628 79.4048 18.7257 80.6052 19.9453C81.4059 20.759 81.9886 21.8264 82.5279 23.4678C82.8522 24.455 82.9194 24.5768 83.1567 24.6068L83.4223 24.6405V17.9772V11.3138L83.1484 11.3476C82.9039 11.3776 82.8431 11.4798 82.5808 12.3016C81.6478 15.2257 80.2175 16.7694 78.0081 17.237C77.5684 17.3301 76.5861 17.4094 75.7111 17.4225L74.1821 17.4452V10.1577V2.87021L77.21 2.87638C79.9686 2.88212 80.3167 2.90329 81.1253 3.11458C82.61 3.50268 83.6401 4.10174 84.729 5.21008C86.095 6.60046 87.1982 8.40393 88.6123 11.5586C89.3128 13.1212 89.323 13.1366 89.6598 13.1366H90L89.9973 12.4716C89.9952 11.969 89.7069 2.23561 89.69 2.0989C89.6882 2.08422 83.6729 2.0723 76.3225 2.0723H62.9582V2.32593ZM16.5487 3.07564C18.5701 3.53342 19.8972 4.82273 20.4155 6.83238C20.6821 7.86667 20.8081 10.0407 20.6745 11.3049C20.4545 13.3865 19.8486 14.7419 18.7664 15.5725C17.5768 16.4856 16.3939 16.7448 13.3904 16.75L11.2761 16.7537V9.77058V2.78744L13.547 2.84882C15.0059 2.88829 16.0792 2.96936 16.5487 3.07564ZM42.0766 7.6106C42.6673 7.77199 43.5519 7.86157 45.6787 7.97519C47.2291 8.05806 48.8428 8.2003 49.2646 8.29137C53.4769 9.20034 56.7758 13.0914 57.7017 18.2431C57.9542 19.6473 57.9509 22.5893 57.6954 24.0412C56.9434 28.3149 54.7744 31.533 51.6299 33.0409C50.2371 33.7088 49.255 33.9157 47.7737 33.8532C46.308 33.7914 45.5796 33.6137 44.4258 33.0366C43.3248 32.4858 42.3616 31.6583 41.5603 30.5748C40.9129 29.6994 40.9096 29.6912 41.1528 29.5849C41.2876 29.526 41.9617 29.4754 42.6508 29.4724C43.8095 29.4674 43.9505 29.4893 44.5258 29.7638C45.2562 30.1123 45.773 30.4948 46.0086 30.8611C46.1674 31.108 46.1646 31.1381 45.9621 31.3593C45.7524 31.5884 45.7517 31.6011 45.9378 31.8335L46.129 32.0725L47.0748 31.0541C49.65 28.2815 51.3882 25.5517 52.0145 23.2965C52.3136 22.2191 52.3322 20.5567 52.0565 19.5198C51.7641 18.4198 51.0387 17.1272 49.967 15.7962C48.6263 14.1313 47.9571 13.1466 47.6325 12.3614C47.401 11.8016 47.3596 11.5454 47.3624 10.6897C47.3647 10.017 47.4231 9.52642 47.537 9.22279L47.7081 8.7665L47.3795 8.95682C46.8597 9.25758 45.6464 10.4635 45.1493 11.1733C44.5185 12.0741 43.894 13.4483 43.63 14.5169C43.3236 15.7563 43.3897 17.4729 43.7927 18.7499C44.3727 20.5869 45.1501 22.0437 46.3489 23.5393C47.8333 25.3914 48.0065 25.6584 48.1362 26.2949C48.2823 27.012 48.1753 27.6846 47.7733 28.5746L47.5036 29.1717L46.4346 28.7875C45.396 28.4143 45.3236 28.4035 43.9037 28.4097C42.4563 28.4161 42.3495 28.4335 40.6558 28.9394C40.4574 28.9986 40.383 28.8746 39.9021 27.683C38.3942 23.9461 38.055 21.9952 38.1359 17.5266C38.2163 13.0919 38.5605 11.7259 40.3881 8.59011C40.7713 7.93274 41.1317 7.39527 41.1891 7.3957C41.2465 7.39623 41.6459 7.49294 42.0766 7.6106ZM17.1752 17.8628C19.5636 18.5574 20.988 20.1103 21.5735 22.6582C21.8652 23.9274 21.8432 27.2685 21.534 28.6313C21.0052 30.9627 19.8468 32.2383 17.7018 32.8513C17.0771 33.0299 16.5377 33.069 14.1212 33.1106L11.2761 33.1597V25.3729V17.586L13.9124 17.6333C15.9803 17.6705 16.6838 17.7199 17.1752 17.8628Z" fill="black" fill-opacity="0.9"/>
</svg>
